<svg id="Lager_1" data-name="Lager 1" xmlns="http://www.w3.org/2000/svg" viewBox="0 0 448.58 51.19"><defs><style>.cls-1{fill:#fff;}</style></defs><title>jarnvagsmuseet_logotyp</title><path class="cls-1" d="M14.21,39.68c0,2.3-.2,3.79-.59,4.47a2,2,0,0,1-1.8,1,5,5,0,0,1-2.44-.7,12.74,12.74,0,0,1-3.06-2.73L.91,46.81q4.57,5.7,11.1,5.71A9.82,9.82,0,0,0,17.48,51a8.3,8.3,0,0,0,3.27-4q1-2.52,1-8.77V12.09H14.21V39.68ZM24.28,51.53h7.8l3.21-8.13H51.38l3.09,8.13h7.8L47.1,12.09H39.49L24.28,51.53ZM48.6,36.08H38.05l5.29-13.54L48.6,36.08Zm-14-33.62a3.69,3.69,0,0,0-1.13,2.71A3.72,3.72,0,0,0,34.64,7.9a3.84,3.84,0,0,0,5.44,0,3.72,3.72,0,0,0,1.13-2.73,3.69,3.69,0,0,0-1.13-2.71,3.84,3.84,0,0,0-5.44,0Zm11.88,0a3.69,3.69,0,0,0-1.13,2.71A3.72,3.72,0,0,0,46.52,7.9,3.84,3.84,0,0,0,52,7.9a3.72,3.72,0,0,0,1.13-2.73A3.69,3.69,0,0,0,52,2.46a3.84,3.84,0,0,0-5.44,0ZM65.29,51.53H72.8V34.82h.68l8.87,16.71h8.21L81.22,34a11.28,11.28,0,0,0,5.61-4,10.89,10.89,0,0,0,1.87-6.51A11.89,11.89,0,0,0,87,17.13a9.55,9.55,0,0,0-4.46-3.88c-1.85-.78-5-1.16-9.31-1.16H65.29V51.53ZM72.8,19.41h2.06a13.56,13.56,0,0,1,4.11.41,3.72,3.72,0,0,1,1.79,1.37,3.81,3.81,0,0,1,.67,2.25,3.54,3.54,0,0,1-1.35,3.12c-.9.63-2.54.94-4.93.94H72.8V19.41ZM93.36,51.53h7.51V25.65l16.86,25.88H125V12.09h-7.51V38L100.57,12.09H93.36V51.53Zm48.28,0h7.24l14.21-39.44h-7.71l-10.06,28-9.93-28h-7.72l14,39.44Zm15.51,0H165l3.21-8.13h16.09l3.09,8.13h7.8L180,12.09h-7.61L157.15,51.53Zm24.32-15.45H170.92l5.29-13.54,5.26,13.54Zm-14-33.62a3.68,3.68,0,0,0-1.12,2.71,3.71,3.71,0,0,0,1.12,2.73A3.71,3.71,0,0,0,170.22,9,3.76,3.76,0,0,0,173,7.9a3.71,3.71,0,0,0,1.12-2.73A3.68,3.68,0,0,0,173,2.46a3.76,3.76,0,0,0-2.74-1.13,3.71,3.71,0,0,0-2.71,1.13Zm11.88,0a3.69,3.69,0,0,0-1.13,2.71,3.72,3.72,0,0,0,1.13,2.73,3.84,3.84,0,0,0,5.44,0A3.72,3.72,0,0,0,186,5.17a3.69,3.69,0,0,0-1.13-2.71,3.84,3.84,0,0,0-5.44,0ZM224.47,13a24.38,24.38,0,0,0-9.63-1.91,20.41,20.41,0,0,0-16,6.89,19.81,19.81,0,0,0-5.17,13.62,21.19,21.19,0,0,0,2.8,10.65,19.51,19.51,0,0,0,7.61,7.6,22.21,22.21,0,0,0,11,2.67,19.86,19.86,0,0,0,10-2.44A18.81,18.81,0,0,0,232,43a19.26,19.26,0,0,0,2.68-9.81l-.05-1.67H214.79v7.06h11.42a11.52,11.52,0,0,1-4.31,5.12,12.35,12.35,0,0,1-6.56,1.63,13.87,13.87,0,0,1-10.07-4,13,13,0,0,1-4.08-9.67,12.63,12.63,0,0,1,3.94-9.39,13.38,13.38,0,0,1,9.75-3.86,15.61,15.61,0,0,1,11.7,5.31l5.29-5.23a22.09,22.09,0,0,0-7.4-5.52Zm29.82-.54a12.18,12.18,0,0,0-5.62-1.37A10.84,10.84,0,0,0,241,14a9.3,9.3,0,0,0-3.13,7,10.36,10.36,0,0,0,1.88,5.7q1.89,2.85,8.33,8.11a29,29,0,0,1,4.38,4.1,4.5,4.5,0,0,1,1,2.68,3.35,3.35,0,0,1-1.32,2.6,4.82,4.82,0,0,1-3.25,1.13c-2.47,0-4.65-1.75-6.55-5.23L236,44a16.3,16.3,0,0,0,5.36,6.48,13,13,0,0,0,7.34,2.07,12.25,12.25,0,0,0,8.75-3.17,10.54,10.54,0,0,0,3.35-8,11,11,0,0,0-.95-4.6,15.94,15.94,0,0,0-3.24-4.41c-.61-.63-2.34-2.14-5.21-4.53a50.33,50.33,0,0,1-5.5-5.07,3,3,0,0,1-.67-1.88,2.29,2.29,0,0,1,.94-1.78,3.59,3.59,0,0,1,2.41-.79c2,0,4,1.36,6,4.07l5.56-4.9a20.44,20.44,0,0,0-5.79-5Zm10.64,39.07h7.32l4.33-24.91,8.3,24.91h6.62l8.38-24.91,4.23,24.91h7.26l-6.62-39.44h-7.31l-9.22,27.5-9.15-27.5h-7.31l-6.83,39.44ZM314.88,35.6q0,7,1.37,10a11.52,11.52,0,0,0,4.54,4.94,13.92,13.92,0,0,0,7.47,2,15,15,0,0,0,5.74-1,12,12,0,0,0,4.36-3.18,11.73,11.73,0,0,0,2.56-4.45,34.5,34.5,0,0,0,.67-8.26V12.09h-7.54V36.65A17,17,0,0,1,333.5,42a4.74,4.74,0,0,1-2,2.32,6.24,6.24,0,0,1-3.42.91,6,6,0,0,1-3.2-.81A4.7,4.7,0,0,1,323,42.25a13.34,13.34,0,0,1-.57-4.66V12.09h-7.54V35.6ZM363,12.46a12.22,12.22,0,0,0-5.63-1.37A10.81,10.81,0,0,0,349.68,14a9.3,9.3,0,0,0-3.13,7,10.36,10.36,0,0,0,1.88,5.7q1.88,2.85,8.33,8.11a28.31,28.31,0,0,1,4.37,4.1,4.45,4.45,0,0,1,1,2.68,3.35,3.35,0,0,1-1.32,2.6,4.84,4.84,0,0,1-3.25,1.13c-2.47,0-4.65-1.75-6.55-5.23L344.7,44a16.29,16.29,0,0,0,5.35,6.48,13,13,0,0,0,7.35,2.07,12.25,12.25,0,0,0,8.75-3.17,10.54,10.54,0,0,0,3.35-8,11.1,11.1,0,0,0-.95-4.6,15.94,15.94,0,0,0-3.24-4.41c-.61-.63-2.34-2.14-5.21-4.53a50.85,50.85,0,0,1-5.51-5.07,3.11,3.11,0,0,1-.67-1.88,2.32,2.32,0,0,1,.94-1.78,3.63,3.63,0,0,1,2.42-.79q3,0,6,4.07l5.56-4.9a20.28,20.28,0,0,0-5.78-5Zm11.47,39.07H396V44.15H381.94V33.78H396V26.56H381.94V19.43H396V12.09H374.49V51.53Zm27.46,0h21.53V44.15H409.4V33.78h14.08V26.56H409.4V19.43h14.08V12.09H402V51.53Zm25.74-32h7v32h7.62v-32h7.18v-7.4H427.69v7.4Z" transform="translate(-0.91 -1.33)"/></svg>